<svg fill="none" xmlns="http://www.w3.org/2000/svg" viewBox="0 0 40 40">
  <g filter="url(#Wgvst86tf9Q3a)">
    <path fill="#20232D" d="M0 0h40v40H0z"/>
    <path fill="url(#Wgvst86tf9Q3b)" fill-opacity=".24" d="M0 0h40v40H0z"/>
    <path d="M11.988 9.021c-.672.108-1.215.433-1.807 1.083-.82.9-1.753 2.6-2.417 4.409-.11.301-.325.882-.477 1.29-1.59 4.268-2.203 6.61-2.281 8.705-.092 2.45.922 4.026 2.837 4.408 1.902.38 3.328-.532 4.188-2.678.37-.923.57-1.704 1.016-3.981.513-2.617 1.086-4.73 1.724-6.355l-.618-1.406c-.81 1.622-1.672 4.447-2.426 7.978-.332 1.555-.532 2.29-.823 3.035-.649 1.657-1.463 2.259-2.716 2.011-1.174-.232-1.663-.998-1.666-2.61-.003-1.947.592-4.092 2.472-8.904.77-1.969 1.077-2.652 1.573-3.498.817-1.394 1.462-1.951 1.996-1.726.517.218 1.07 1.007 1.788 2.554.11.235.16.346.18.406l.613 1.397c.033.068.11.236.193.427 1.556 3.54 2.848 4.874 4.65 4.805 1.63-.063 2.835-1.324 4.268-4.491a11.566 11.566 0 00-.445-1.027 2.877 2.877 0 00-.353-.561c-.115-.133-.206-.188-.272-.204-.12.276-.27.616-.419.952-1.132 2.538-1.99 3.603-2.9 3.603-.899 0-1.778-1.082-2.874-3.541a85.69 85.69 0 01-.627-1.44l-.524-1.182-.213-.424c-.94-1.866-1.72-2.718-2.738-2.987a2.926 2.926 0 00-.902-.048z" fill="#fff"/>
    <path d="M18.21 15.504c-.298-.3-.434-.47-.813-1.053l-.02-.049-.882-2.047c.028.002.056.004.083.008.6.083 1.032.46 1.584 1.386.502.84.914 1.294 1.347 1.483.184.08.53.08.714 0 .447-.195.867-.669 1.419-1.598.64-1.08 1.36-1.484 2.13-1.198l.122.046s.047.02.172.092c.124.07.142.096.355.282.198.174.314.308.482.534.084.113.143.177.222.3.033.05.05.08.08.134.062.103.094.163.152.268 1.66 2.994 1.798 4.401 2.65 8.387.536 2.51.94 3.63 1.588 4.403.54.645 1.277.844 2.175.586 1.012-.29 1.44-1.053 1.44-2.568.002-1.65-.52-3.743-1.748-7.021a185.85 185.85 0 00-1.422-3.624c-.816-1.892-1.775-3.282-2.4-3.48a.972.972 0 00-.246-.04c-.517.002-1.142.773-1.888 2.333a4.907 4.907 0 00-.666-.714 3.898 3.898 0 00-.65-.467c.671-1.316 1.25-2.061 1.933-2.5.89-.571 1.966-.506 2.848.172 1.01.776 2.166 2.687 2.997 4.954.11.301.325.882.478 1.29 1.452 3.902 2.08 6.174 2.248 8.127.242 2.835-.736 4.573-2.804 4.986-1.92.383-3.348-.545-4.211-2.736-.346-.878-.537-1.622-.933-3.624-.507-2.565-.932-4.237-1.484-5.833a23.572 23.572 0 00-.377-1.01 13.145 13.145 0 00-.502-1.166c-.133-.261-.22-.463-.442-.692-.172-.178-.344-.354-.51-.393a.493.493 0 00-.314.012c-.13.062-.367.328-.557.626-.38.595-.49.76-.644.96-1.131 1.47-2.529 1.638-3.707.444z" fill="#fff"/>
  </g>
  <defs>
    <linearGradient id="Wgvst86tf9Q3b" x1="20" y1="0" x2="20" y2="40" gradientUnits="userSpaceOnUse">
      <stop stop-color="#fff"/>
      <stop offset="1" stop-color="#fff" stop-opacity="0"/>
    </linearGradient>
    <filter id="Wgvst86tf9Q3a" x="0" y="-4" width="40" height="44" filterUnits="userSpaceOnUse" color-interpolation-filters="sRGB">
      <feFlood flood-opacity="0" result="BackgroundImageFix"/>
      <feBlend in="SourceGraphic" in2="BackgroundImageFix" result="shape"/>
      <feColorMatrix in="SourceAlpha" values="0 0 0 0 0 0 0 0 0 0 0 0 0 0 0 0 0 0 127 0" result="hardAlpha"/>
      <feOffset dy="-4"/>
      <feGaussianBlur stdDeviation="4"/>
      <feComposite in2="hardAlpha" operator="arithmetic" k2="-1" k3="1"/>
      <feColorMatrix values="0 0 0 0 1 0 0 0 0 1 0 0 0 0 1 0 0 0 0.64 0"/>
      <feBlend in2="shape" result="effect1_innerShadow_11974_9916"/>
    </filter>
  </defs>
</svg>
